# Blender 3.5.0
# www.blender.org
mtllib 3.mtl
o Text
v 0.116582 0.139693 0.049866
v 0.122326 0.108534 0.049670
v 0.111700 0.059139 0.049360
v 0.082120 0.022954 0.049133
v 0.036744 0.000698 0.048994
v -0.020980 -0.006913 0.048946
v -0.056591 -0.004184 0.048963
v -0.086028 0.002564 0.049005
v -0.107136 0.010893 0.049058
v -0.118049 0.017498 0.049099
v -0.121926 0.022667 0.049131
v -0.124224 0.029416 0.049174
v -0.125660 0.039180 0.049235
v -0.126090 0.053395 0.049324
v -0.123793 0.072493 0.049444
v -0.116900 0.077806 0.049478
v -0.106992 0.073929 0.049453
v -0.089043 0.065601 0.049401
v -0.063484 0.057272 0.049349
v -0.030170 0.053395 0.049324
v -0.002313 0.057129 0.049348
v 0.018221 0.067611 0.049414
v 0.030857 0.083980 0.049516
v 0.035021 0.105375 0.049651
v 0.029996 0.128637 0.049797
v 0.015062 0.146298 0.049907
v -0.009923 0.157642 0.049979
v -0.045391 0.161663 0.050004
v -0.077556 0.161663 0.050004
v -0.083874 0.162668 0.050010
v -0.088182 0.166832 0.050036
v -0.090623 0.175591 0.050091
v -0.091341 0.190093 0.050182
v -0.090623 0.203735 0.050268
v -0.088325 0.211919 0.050319
v -0.084305 0.215940 0.050344
v -0.078417 0.217089 0.050352
v -0.045965 0.217089 0.050352
v -0.016385 0.220965 0.050376
v 0.005298 0.232022 0.050445
v 0.018652 0.249396 0.050554
v 0.023247 0.271940 0.050696
v 0.020088 0.289889 0.050809
v 0.010754 0.304535 0.050900
v -0.005185 0.314299 0.050962
v -0.028160 0.317889 0.050984
v -0.056304 0.313438 0.050956
v -0.079997 0.303674 0.050895
v -0.097802 0.293766 0.050833
v -0.108572 0.289171 0.050804
v -0.112593 0.290176 0.050810
v -0.115464 0.294053 0.050835
v -0.117188 0.302381 0.050887
v -0.117762 0.316453 0.050975
v -0.117475 0.328371 0.051050
v -0.116326 0.336269 0.051100
v -0.114172 0.341725 0.051134
v -0.110008 0.346751 0.051165
v -0.098233 0.354935 0.051217
v -0.075833 0.365561 0.051283
v -0.044673 0.374320 0.051338
v -0.006334 0.377910 0.051361
v 0.041483 0.371592 0.051321
v 0.076520 0.353356 0.051207
v 0.098059 0.324063 0.051023
v 0.105382 0.284863 0.050777
v 0.101074 0.253273 0.050579
v 0.088438 0.227140 0.050415
v 0.067617 0.207612 0.050292
v 0.038755 0.195550 0.050216
v 0.038755 0.194688 0.050211
v 0.073792 0.184781 0.050149
v 0.100069 0.165683 0.050029
v 0.116582 0.140308 -0.048109
v 0.122326 0.109149 -0.048304
v 0.111700 0.059754 -0.048614
v 0.082120 0.023569 -0.048841
v 0.036744 0.001313 -0.048981
v -0.020980 -0.006298 -0.049029
v -0.056591 -0.003570 -0.049012
v -0.086028 0.003179 -0.048969
v -0.107136 0.011507 -0.048917
v -0.118049 0.018113 -0.048876
v -0.121926 0.023282 -0.048843
v -0.124224 0.030031 -0.048801
v -0.125660 0.039795 -0.048739
v -0.126090 0.054010 -0.048650
v -0.123793 0.073108 -0.048530
v -0.116900 0.078421 -0.048497
v -0.106992 0.074544 -0.048521
v -0.089043 0.066215 -0.048574
v -0.063484 0.057887 -0.048626
v -0.030170 0.054010 -0.048650
v -0.002313 0.057744 -0.048627
v 0.018221 0.068226 -0.048561
v 0.030857 0.084595 -0.048458
v 0.035021 0.105990 -0.048324
v 0.029996 0.129252 -0.048178
v 0.015062 0.146913 -0.048067
v -0.009923 0.158257 -0.047996
v -0.045391 0.162277 -0.047971
v -0.077556 0.162277 -0.047971
v -0.083874 0.163283 -0.047965
v -0.088182 0.167447 -0.047938
v -0.090623 0.176206 -0.047883
v -0.091341 0.190708 -0.047792
v -0.090623 0.204349 -0.047707
v -0.088325 0.212534 -0.047655
v -0.084305 0.216555 -0.047630
v -0.078417 0.217703 -0.047623
v -0.045965 0.217703 -0.047623
v -0.016385 0.221580 -0.047599
v 0.005298 0.232637 -0.047529
v 0.018652 0.250011 -0.047420
v 0.023247 0.272555 -0.047279
v 0.020088 0.290504 -0.047166
v 0.010754 0.305150 -0.047074
v -0.005185 0.314914 -0.047013
v -0.028160 0.318504 -0.046990
v -0.056304 0.314053 -0.047018
v -0.079997 0.304288 -0.047080
v -0.097802 0.294381 -0.047142
v -0.108572 0.289786 -0.047171
v -0.112593 0.290791 -0.047164
v -0.115464 0.294668 -0.047140
v -0.117188 0.302996 -0.047088
v -0.117762 0.317068 -0.046999
v -0.117475 0.328986 -0.046925
v -0.116326 0.336883 -0.046875
v -0.114172 0.342340 -0.046841
v -0.110008 0.347366 -0.046809
v -0.098233 0.355550 -0.046758
v -0.075833 0.366176 -0.046691
v -0.044673 0.374935 -0.046636
v -0.006334 0.378525 -0.046614
v 0.041483 0.372207 -0.046653
v 0.076520 0.353971 -0.046768
v 0.098059 0.324678 -0.046952
v 0.105382 0.285478 -0.047198
v 0.101074 0.253888 -0.047396
v 0.088438 0.227755 -0.047560
v 0.067617 0.208226 -0.047682
v 0.038755 0.196165 -0.047758
v 0.038755 0.195303 -0.047764
v 0.073792 0.185396 -0.047826
v 0.100069 0.166298 -0.047946
v 0.116582 0.140308 -0.048109
v 0.116582 0.139693 0.049866
v 0.122326 0.109149 -0.048304
v 0.122326 0.108534 0.049670
v 0.111700 0.059754 -0.048614
v 0.111700 0.059139 0.049360
v 0.082120 0.023569 -0.048841
v 0.082120 0.022954 0.049133
v 0.036744 0.001313 -0.048981
v 0.036744 0.000698 0.048994
v -0.020980 -0.006298 -0.049029
v -0.020980 -0.006913 0.048946
v -0.056591 -0.003570 -0.049012
v -0.056591 -0.004184 0.048963
v -0.086028 0.003179 -0.048969
v -0.086028 0.002564 0.049005
v -0.107136 0.011507 -0.048917
v -0.107136 0.010893 0.049058
v -0.118049 0.018113 -0.048876
v -0.118049 0.017498 0.049099
v -0.121926 0.023282 -0.048843
v -0.121926 0.022667 0.049131
v -0.124224 0.030031 -0.048801
v -0.124224 0.029416 0.049174
v -0.125660 0.039795 -0.048739
v -0.125660 0.039180 0.049235
v -0.126090 0.054010 -0.048650
v -0.126090 0.053395 0.049324
v -0.123793 0.073108 -0.048530
v -0.123793 0.072493 0.049444
v -0.116900 0.078421 -0.048497
v -0.116900 0.077806 0.049478
v -0.106992 0.074544 -0.048521
v -0.106992 0.073929 0.049453
v -0.089043 0.066215 -0.048574
v -0.089043 0.065601 0.049401
v -0.063484 0.057887 -0.048626
v -0.063484 0.057272 0.049349
v -0.030170 0.054010 -0.048650
v -0.030170 0.053395 0.049324
v -0.002313 0.057744 -0.048627
v -0.002313 0.057129 0.049348
v 0.018221 0.068226 -0.048561
v 0.018221 0.067611 0.049414
v 0.030857 0.084595 -0.048458
v 0.030857 0.083980 0.049516
v 0.035021 0.105990 -0.048324
v 0.035021 0.105375 0.049651
v 0.029996 0.129252 -0.048178
v 0.029996 0.128637 0.049797
v 0.015062 0.146913 -0.048067
v 0.015062 0.146298 0.049907
v -0.009923 0.158257 -0.047996
v -0.009923 0.157642 0.049979
v -0.045391 0.162277 -0.047971
v -0.045391 0.161663 0.050004
v -0.077556 0.162277 -0.047971
v -0.077556 0.161663 0.050004
v -0.083874 0.163283 -0.047965
v -0.083874 0.162668 0.050010
v -0.088182 0.167447 -0.047938
v -0.088182 0.166832 0.050036
v -0.090623 0.176206 -0.047883
v -0.090623 0.175591 0.050091
v -0.091341 0.190708 -0.047792
v -0.091341 0.190093 0.050182
v -0.090623 0.204349 -0.047707
v -0.090623 0.203735 0.050268
v -0.088325 0.212534 -0.047655
v -0.088325 0.211919 0.050319
v -0.084305 0.216555 -0.047630
v -0.084305 0.215940 0.050344
v -0.078417 0.217703 -0.047623
v -0.078417 0.217089 0.050352
v -0.045965 0.217703 -0.047623
v -0.045965 0.217089 0.050352
v -0.016385 0.221580 -0.047599
v -0.016385 0.220965 0.050376
v 0.005298 0.232637 -0.047529
v 0.005298 0.232022 0.050445
v 0.018652 0.250011 -0.047420
v 0.018652 0.249396 0.050554
v 0.023247 0.272555 -0.047279
v 0.023247 0.271940 0.050696
v 0.020088 0.290504 -0.047166
v 0.020088 0.289889 0.050809
v 0.010754 0.305150 -0.047074
v 0.010754 0.304535 0.050900
v -0.005185 0.314914 -0.047013
v -0.005185 0.314299 0.050962
v -0.028160 0.318504 -0.046990
v -0.028160 0.317889 0.050984
v -0.056304 0.314053 -0.047018
v -0.056304 0.313438 0.050956
v -0.079997 0.304288 -0.047080
v -0.079997 0.303674 0.050895
v -0.097802 0.294381 -0.047142
v -0.097802 0.293766 0.050833
v -0.108572 0.289786 -0.047171
v -0.108572 0.289171 0.050804
v -0.112593 0.290791 -0.047164
v -0.112593 0.290176 0.050810
v -0.115464 0.294668 -0.047140
v -0.115464 0.294053 0.050835
v -0.117188 0.302996 -0.047088
v -0.117188 0.302381 0.050887
v -0.117762 0.317068 -0.046999
v -0.117762 0.316453 0.050975
v -0.117475 0.328986 -0.046925
v -0.117475 0.328371 0.051050
v -0.116326 0.336883 -0.046875
v -0.116326 0.336269 0.051100
v -0.114172 0.342340 -0.046841
v -0.114172 0.341725 0.051134
v -0.110008 0.347366 -0.046809
v -0.110008 0.346751 0.051165
v -0.098233 0.355550 -0.046758
v -0.098233 0.354935 0.051217
v -0.075833 0.366176 -0.046691
v -0.075833 0.365561 0.051283
v -0.044673 0.374935 -0.046636
v -0.044673 0.374320 0.051338
v -0.006334 0.378525 -0.046614
v -0.006334 0.377910 0.051361
v 0.041483 0.372207 -0.046653
v 0.041483 0.371592 0.051321
v 0.076520 0.353971 -0.046768
v 0.076520 0.353356 0.051207
v 0.098059 0.324678 -0.046952
v 0.098059 0.324063 0.051023
v 0.105382 0.285478 -0.047198
v 0.105382 0.284863 0.050777
v 0.101074 0.253888 -0.047396
v 0.101074 0.253273 0.050579
v 0.088438 0.227755 -0.047560
v 0.088438 0.227140 0.050415
v 0.067617 0.208226 -0.047682
v 0.067617 0.207612 0.050292
v 0.038755 0.196165 -0.047758
v 0.038755 0.195550 0.050216
v 0.038755 0.195303 -0.047764
v 0.038755 0.194688 0.050211
v 0.073792 0.185396 -0.047826
v 0.073792 0.184781 0.050149
v 0.100069 0.166298 -0.047946
v 0.100069 0.165683 0.050029
vn -0.0000 -0.0063 1.0000
vn -0.0000 0.0063 -1.0000
vn 0.9308 0.3655 0.0023
vn 0.9999 -0.0148 -0.0001
vn 0.9011 -0.4337 -0.0027
vn 0.6216 -0.7833 -0.0049
vn 0.2894 -0.9572 -0.0060
vn 0.0273 -0.9996 -0.0063
vn -0.1503 -0.9886 -0.0062
vn -0.2961 -0.9551 -0.0060
vn -0.4440 -0.8960 -0.0056
vn -0.6712 -0.7413 -0.0047
vn -0.8843 -0.4669 -0.0029
vn -0.9720 -0.2348 -0.0015
vn -0.9961 -0.0880 -0.0006
vn -0.9990 0.0447 0.0003
vn -0.8694 0.4942 0.0031
vn -0.1414 0.9899 0.0062
vn 0.3928 0.9196 0.0058
vn 0.3660 0.9306 0.0058
vn 0.2138 0.9769 0.0061
vn -0.0087 0.9999 0.0063
vn -0.2980 0.9545 0.0060
vn -0.6386 0.7695 0.0048
vn -0.9111 0.4121 0.0026
vn -0.9999 -0.0103 -0.0001
vn -0.8972 -0.4416 -0.0028
vn -0.6032 -0.7975 -0.0050
vn -0.2663 -0.9639 -0.0060
vn -0.0564 -0.9984 -0.0063
vn -0.0788 -0.9969 -0.0063
vn -0.4467 -0.8947 -0.0056
vn -0.8592 -0.5116 -0.0032
vn -0.9871 -0.1599 -0.0010
vn -1.0000 0.0016 -0.0000
vn -0.9867 0.1624 0.0010
vn -0.8630 0.5051 0.0032
vn -0.4698 0.8828 0.0055
vn -0.0962 0.9953 0.0062
vn -0.0651 0.9979 0.0063
vn -0.2964 0.9550 0.0060
vn -0.6393 0.7690 0.0048
vn -0.9097 0.4152 0.0026
vn -0.9999 0.0134 0.0001
vn -0.9320 -0.3623 -0.0023
vn -0.7008 -0.7133 -0.0045
vn -0.3451 -0.9386 -0.0059
vn 0.0009 -1.0000 -0.0063
vn 0.2705 -0.9627 -0.0060
vn 0.4344 -0.9007 -0.0057
vn 0.4399 -0.8980 -0.0056
vn 0.0791 -0.9968 -0.0063
vn -0.5556 -0.8314 -0.0052
vn -0.9128 -0.4085 -0.0026
vn -0.9925 -0.1221 -0.0008
vn -1.0000 -0.0084 -0.0001
vn -0.9965 0.0842 0.0005
vn -0.9663 0.2573 0.0016
vn -0.8608 0.5089 0.0032
vn -0.6766 0.7363 0.0046
vn -0.5014 0.8652 0.0054
vn -0.3509 0.9364 0.0059
vn -0.1827 0.9832 0.0062
vn 0.0190 0.9998 0.0063
vn 0.3009 0.9536 0.0060
vn 0.6506 0.7594 0.0048
vn 0.9174 0.3980 0.0025
vn 0.9997 0.0246 0.0002
vn 0.9574 -0.2888 -0.0018
vn 0.8057 -0.5923 -0.0037
vn 0.5435 -0.8394 -0.0053
vn 0.8323 -0.5542 -0.0035
vn 0.7975 0.6033 0.0038
vn 0.4368 0.8995 0.0056
vn 0.7288 0.6847 0.0043
vt 0.000000 0.000000
vt 0.013889 0.000000
vt 0.027778 0.000000
vt 0.041667 0.000000
vt 0.055556 0.000000
vt 0.069444 0.000000
vt 0.083333 0.000000
vt 0.097222 0.000000
vt 0.111111 0.000000
vt 0.125000 0.000000
vt 0.138889 0.000000
vt 0.152778 0.000000
vt 0.166667 0.000000
vt 0.180556 0.000000
vt 0.194444 0.000000
vt 0.208333 0.000000
vt 0.222222 0.000000
vt 0.236111 0.000000
vt 0.250000 0.000000
vt 0.263889 0.000000
vt 0.277778 0.000000
vt 0.291667 0.000000
vt 0.305556 0.000000
vt 0.319444 0.000000
vt 0.333333 0.000000
vt 0.347222 0.000000
vt 0.361111 0.000000
vt 0.375000 0.000000
vt 0.388889 0.000000
vt 0.402778 0.000000
vt 0.416667 0.000000
vt 0.430556 0.000000
vt 0.444444 0.000000
vt 0.458333 0.000000
vt 0.472222 0.000000
vt 0.486111 0.000000
vt 0.500000 0.000000
vt 0.513889 0.000000
vt 0.527778 0.000000
vt 0.541667 0.000000
vt 0.555556 0.000000
vt 0.569444 0.000000
vt 0.583333 0.000000
vt 0.597222 0.000000
vt 0.611111 0.000000
vt 0.625000 0.000000
vt 0.638889 0.000000
vt 0.652778 0.000000
vt 0.666667 0.000000
vt 0.680556 0.000000
vt 0.694444 0.000000
vt 0.708333 0.000000
vt 0.722222 0.000000
vt 0.736111 0.000000
vt 0.750000 0.000000
vt 0.763889 0.000000
vt 0.777778 0.000000
vt 0.791667 0.000000
vt 0.805556 0.000000
vt 0.819444 0.000000
vt 0.833333 0.000000
vt 0.847222 0.000000
vt 0.861111 0.000000
vt 0.875000 0.000000
vt 0.888889 0.000000
vt 0.902778 0.000000
vt 0.916667 0.000000
vt 0.930556 0.000000
vt 0.944444 0.000000
vt 0.958333 0.000000
vt 0.972222 0.000000
vt 0.986111 0.000000
vt 1.000000 0.000000
vt 0.000000 0.000000
vt 0.013889 0.000000
vt 0.027778 0.000000
vt 0.041667 0.000000
vt 0.055556 0.000000
vt 0.069444 0.000000
vt 0.083333 0.000000
vt 0.097222 0.000000
vt 0.111111 0.000000
vt 0.125000 0.000000
vt 0.138889 0.000000
vt 0.152778 0.000000
vt 0.166667 0.000000
vt 0.180556 0.000000
vt 0.194444 0.000000
vt 0.208333 0.000000
vt 0.222222 0.000000
vt 0.236111 0.000000
vt 0.250000 0.000000
vt 0.263889 0.000000
vt 0.277778 0.000000
vt 0.291667 0.000000
vt 0.305556 0.000000
vt 0.319444 0.000000
vt 0.333333 0.000000
vt 0.347222 0.000000
vt 0.361111 0.000000
vt 0.375000 0.000000
vt 0.388889 0.000000
vt 0.402778 0.000000
vt 0.416667 0.000000
vt 0.430556 0.000000
vt 0.444444 0.000000
vt 0.458333 0.000000
vt 0.472222 0.000000
vt 0.486111 0.000000
vt 0.500000 0.000000
vt 0.513889 0.000000
vt 0.527778 0.000000
vt 0.541667 0.000000
vt 0.555556 0.000000
vt 0.569444 0.000000
vt 0.583333 0.000000
vt 0.597222 0.000000
vt 0.611111 0.000000
vt 0.625000 0.000000
vt 0.638889 0.000000
vt 0.652778 0.000000
vt 0.666667 0.000000
vt 0.680556 0.000000
vt 0.694444 0.000000
vt 0.708333 0.000000
vt 0.722222 0.000000
vt 0.736111 0.000000
vt 0.750000 0.000000
vt 0.763889 0.000000
vt 0.777778 0.000000
vt 0.791667 0.000000
vt 0.805556 0.000000
vt 0.819444 0.000000
vt 0.833333 0.000000
vt 0.847222 0.000000
vt 0.861111 0.000000
vt 0.875000 0.000000
vt 0.888889 0.000000
vt 0.902778 0.000000
vt 0.916667 0.000000
vt 0.930556 0.000000
vt 0.944444 0.000000
vt 0.958333 0.000000
vt 0.972222 0.000000
vt 0.986111 0.000000
vt 1.000000 0.000000
vt 0.000000 0.000000
vt 1.000000 0.000000
vt 0.000000 1.000000
vt 1.000000 1.000000
vt 0.013699 0.000000
vt 0.013699 1.000000
vt 0.027397 0.000000
vt 0.027397 1.000000
vt 0.041096 0.000000
vt 0.041096 1.000000
vt 0.054795 0.000000
vt 0.054795 1.000000
vt 0.068493 0.000000
vt 0.068493 1.000000
vt 0.082192 0.000000
vt 0.082192 1.000000
vt 0.095890 0.000000
vt 0.095890 1.000000
vt 0.109589 0.000000
vt 0.109589 1.000000
vt 0.123288 0.000000
vt 0.123288 1.000000
vt 0.136986 0.000000
vt 0.136986 1.000000
vt 0.150685 0.000000
vt 0.150685 1.000000
vt 0.164384 0.000000
vt 0.164384 1.000000
vt 0.178082 0.000000
vt 0.178082 1.000000
vt 0.191781 0.000000
vt 0.191781 1.000000
vt 0.205479 0.000000
vt 0.205479 1.000000
vt 0.219178 0.000000
vt 0.219178 1.000000
vt 0.232877 0.000000
vt 0.232877 1.000000
vt 0.246575 0.000000
vt 0.246575 1.000000
vt 0.260274 0.000000
vt 0.260274 1.000000
vt 0.273973 0.000000
vt 0.273973 1.000000
vt 0.287671 0.000000
vt 0.287671 1.000000
vt 0.301370 0.000000
vt 0.301370 1.000000
vt 0.315068 0.000000
vt 0.315068 1.000000
vt 0.328767 0.000000
vt 0.328767 1.000000
vt 0.342466 0.000000
vt 0.342466 1.000000
vt 0.356164 0.000000
vt 0.356164 1.000000
vt 0.369863 0.000000
vt 0.369863 1.000000
vt 0.383562 0.000000
vt 0.383562 1.000000
vt 0.397260 0.000000
vt 0.397260 1.000000
vt 0.410959 0.000000
vt 0.410959 1.000000
vt 0.424658 0.000000
vt 0.424658 1.000000
vt 0.438356 0.000000
vt 0.438356 1.000000
vt 0.452055 0.000000
vt 0.452055 1.000000
vt 0.465753 0.000000
vt 0.465753 1.000000
vt 0.479452 0.000000
vt 0.479452 1.000000
vt 0.493151 0.000000
vt 0.493151 1.000000
vt 0.506849 0.000000
vt 0.506849 1.000000
vt 0.520548 0.000000
vt 0.520548 1.000000
vt 0.534247 0.000000
vt 0.534247 1.000000
vt 0.547945 0.000000
vt 0.547945 1.000000
vt 0.561644 0.000000
vt 0.561644 1.000000
vt 0.575342 0.000000
vt 0.575342 1.000000
vt 0.589041 0.000000
vt 0.589041 1.000000
vt 0.602740 0.000000
vt 0.602740 1.000000
vt 0.616438 0.000000
vt 0.616438 1.000000
vt 0.630137 0.000000
vt 0.630137 1.000000
vt 0.643836 0.000000
vt 0.643836 1.000000
vt 0.657534 0.000000
vt 0.657534 1.000000
vt 0.671233 0.000000
vt 0.671233 1.000000
vt 0.684932 0.000000
vt 0.684932 1.000000
vt 0.698630 0.000000
vt 0.698630 1.000000
vt 0.712329 0.000000
vt 0.712329 1.000000
vt 0.726027 0.000000
vt 0.726027 1.000000
vt 0.739726 0.000000
vt 0.739726 1.000000
vt 0.753425 0.000000
vt 0.753425 1.000000
vt 0.767123 0.000000
vt 0.767123 1.000000
vt 0.780822 0.000000
vt 0.780822 1.000000
vt 0.794521 0.000000
vt 0.794521 1.000000
vt 0.808219 0.000000
vt 0.808219 1.000000
vt 0.821918 0.000000
vt 0.821918 1.000000
vt 0.835616 0.000000
vt 0.835616 1.000000
vt 0.849315 0.000000
vt 0.849315 1.000000
vt 0.863014 0.000000
vt 0.863014 1.000000
vt 0.876712 0.000000
vt 0.876712 1.000000
vt 0.890411 0.000000
vt 0.890411 1.000000
vt 0.904110 0.000000
vt 0.904110 1.000000
vt 0.917808 0.000000
vt 0.917808 1.000000
vt 0.931507 0.000000
vt 0.931507 1.000000
vt 0.945205 0.000000
vt 0.945205 1.000000
vt 0.958904 0.000000
vt 0.958904 1.000000
vt 0.972603 0.000000
vt 0.972603 1.000000
vt 0.986301 0.000000
vt 0.986301 1.000000
s 0
f 61/61/1 63/63/1 62/62/1
f 60/60/1 63/63/1 61/61/1
f 60/60/1 64/64/1 63/63/1
f 59/59/1 64/64/1 60/60/1
f 58/58/1 64/64/1 59/59/1
f 58/58/1 65/65/1 64/64/1
f 57/57/1 65/65/1 58/58/1
f 56/56/1 65/65/1 57/57/1
f 55/55/1 65/65/1 56/56/1
f 54/54/1 65/65/1 55/55/1
f 54/54/1 46/46/1 65/65/1
f 46/46/1 45/45/1 65/65/1
f 45/45/1 66/66/1 65/65/1
f 54/54/1 47/47/1 46/46/1
f 53/53/1 47/47/1 54/54/1
f 44/44/1 66/66/1 45/45/1
f 53/53/1 48/48/1 47/47/1
f 43/43/1 66/66/1 44/44/1
f 53/53/1 49/49/1 48/48/1
f 52/52/1 49/49/1 53/53/1
f 51/51/1 49/49/1 52/52/1
f 51/51/1 50/50/1 49/49/1
f 42/42/1 66/66/1 43/43/1
f 42/42/1 67/67/1 66/66/1
f 41/41/1 67/67/1 42/42/1
f 41/41/1 68/68/1 67/67/1
f 40/40/1 68/68/1 41/41/1
f 39/39/1 68/68/1 40/40/1
f 39/39/1 69/69/1 68/68/1
f 38/38/1 69/69/1 39/39/1
f 36/36/1 38/38/1 37/37/1
f 36/36/1 69/69/1 38/38/1
f 35/35/1 69/69/1 36/36/1
f 34/34/1 69/69/1 35/35/1
f 34/34/1 70/70/1 69/69/1
f 33/33/1 70/70/1 34/34/1
f 33/33/1 71/71/1 70/70/1
f 33/33/1 72/72/1 71/71/1
f 32/32/1 72/72/1 33/33/1
f 32/32/1 73/73/1 72/72/1
f 31/31/1 73/73/1 32/32/1
f 30/30/1 73/73/1 31/31/1
f 30/30/1 28/28/1 73/73/1
f 28/28/1 27/27/1 73/73/1
f 27/27/1 1/1/1 73/73/1
f 29/29/1 28/28/1 30/30/1
f 26/26/1 1/1/1 27/27/1
f 25/25/1 1/1/1 26/26/1
f 25/25/1 2/2/1 1/1/1
f 24/24/1 2/2/1 25/25/1
f 24/24/1 3/3/1 2/2/1
f 23/23/1 3/3/1 24/24/1
f 22/22/1 3/3/1 23/23/1
f 15/15/1 17/17/1 16/16/1
f 15/15/1 18/18/1 17/17/1
f 14/14/1 18/18/1 15/15/1
f 21/21/1 3/3/1 22/22/1
f 14/14/1 19/19/1 18/18/1
f 21/21/1 4/4/1 3/3/1
f 14/14/1 20/20/1 19/19/1
f 20/20/1 4/4/1 21/21/1
f 13/13/1 20/20/1 14/14/1
f 13/13/1 4/4/1 20/20/1
f 12/12/1 4/4/1 13/13/1
f 11/11/1 4/4/1 12/12/1
f 11/11/1 5/5/1 4/4/1
f 10/10/1 5/5/1 11/11/1
f 9/9/1 5/5/1 10/10/1
f 8/8/1 5/5/1 9/9/1
f 7/7/1 5/5/1 8/8/1
f 7/7/1 6/6/1 5/5/1
f 134/134/2 135/135/2 136/136/2
f 133/133/2 134/134/2 136/136/2
f 133/133/2 136/136/2 137/137/2
f 132/132/2 133/133/2 137/137/2
f 131/131/2 132/132/2 137/137/2
f 131/131/2 137/137/2 138/138/2
f 130/130/2 131/131/2 138/138/2
f 129/129/2 130/130/2 138/138/2
f 128/128/2 129/129/2 138/138/2
f 127/127/2 128/128/2 138/138/2
f 127/127/2 138/138/2 119/119/2
f 119/119/2 138/138/2 118/118/2
f 118/118/2 138/138/2 139/139/2
f 127/127/2 119/119/2 120/120/2
f 126/126/2 127/127/2 120/120/2
f 117/117/2 118/118/2 139/139/2
f 126/126/2 120/120/2 121/121/2
f 116/116/2 117/117/2 139/139/2
f 126/126/2 121/121/2 122/122/2
f 125/125/2 126/126/2 122/122/2
f 124/124/2 125/125/2 122/122/2
f 124/124/2 122/122/2 123/123/2
f 115/115/2 116/116/2 139/139/2
f 115/115/2 139/139/2 140/140/2
f 114/114/2 115/115/2 140/140/2
f 114/114/2 140/140/2 141/141/2
f 113/113/2 114/114/2 141/141/2
f 112/112/2 113/113/2 141/141/2
f 112/112/2 141/141/2 142/142/2
f 111/111/2 112/112/2 142/142/2
f 109/109/2 110/110/2 111/111/2
f 109/109/2 111/111/2 142/142/2
f 108/108/2 109/109/2 142/142/2
f 107/107/2 108/108/2 142/142/2
f 107/107/2 142/142/2 143/143/2
f 106/106/2 107/107/2 143/143/2
f 106/106/2 143/143/2 144/144/2
f 106/106/2 144/144/2 145/145/2
f 105/105/2 106/106/2 145/145/2
f 105/105/2 145/145/2 146/146/2
f 104/104/2 105/105/2 146/146/2
f 103/103/2 104/104/2 146/146/2
f 103/103/2 146/146/2 101/101/2
f 101/101/2 146/146/2 100/100/2
f 100/100/2 146/146/2 74/74/2
f 102/102/2 103/103/2 101/101/2
f 99/99/2 100/100/2 74/74/2
f 98/98/2 99/99/2 74/74/2
f 98/98/2 74/74/2 75/75/2
f 97/97/2 98/98/2 75/75/2
f 97/97/2 75/75/2 76/76/2
f 96/96/2 97/97/2 76/76/2
f 95/95/2 96/96/2 76/76/2
f 88/88/2 89/89/2 90/90/2
f 88/88/2 90/90/2 91/91/2
f 87/87/2 88/88/2 91/91/2
f 94/94/2 95/95/2 76/76/2
f 87/87/2 91/91/2 92/92/2
f 94/94/2 76/76/2 77/77/2
f 87/87/2 92/92/2 93/93/2
f 93/93/2 94/94/2 77/77/2
f 86/86/2 87/87/2 93/93/2
f 86/86/2 93/93/2 77/77/2
f 85/85/2 86/86/2 77/77/2
f 84/84/2 85/85/2 77/77/2
f 84/84/2 77/77/2 78/78/2
f 83/83/2 84/84/2 78/78/2
f 82/82/2 83/83/2 78/78/2
f 81/81/2 82/82/2 78/78/2
f 80/80/2 81/81/2 78/78/2
f 80/80/2 78/78/2 79/79/2
s 1
f 148/149/3 150/152/4 149/151/4 147/147/3
f 150/152/4 152/154/5 151/153/5 149/151/4
f 152/154/5 154/156/6 153/155/6 151/153/5
f 154/156/6 156/158/7 155/157/7 153/155/6
f 156/158/7 158/160/8 157/159/8 155/157/7
f 158/160/8 160/162/9 159/161/9 157/159/8
f 160/162/9 162/164/10 161/163/10 159/161/9
f 162/164/10 164/166/11 163/165/11 161/163/10
f 164/166/11 166/168/12 165/167/12 163/165/11
f 166/168/12 168/170/13 167/169/13 165/167/12
f 168/170/13 170/172/14 169/171/14 167/169/13
f 170/172/14 172/174/15 171/173/15 169/171/14
f 172/174/15 174/176/16 173/175/16 171/173/15
f 174/176/16 176/178/17 175/177/17 173/175/16
f 176/178/17 178/180/18 177/179/18 175/177/17
f 178/180/18 180/182/19 179/181/19 177/179/18
f 180/182/19 182/184/20 181/183/20 179/181/19
f 182/184/20 184/186/21 183/185/21 181/183/20
f 184/186/21 186/188/22 185/187/22 183/185/21
f 186/188/22 188/190/23 187/189/23 185/187/22
f 188/190/23 190/192/24 189/191/24 187/189/23
f 190/192/24 192/194/25 191/193/25 189/191/24
f 192/194/25 194/196/26 193/195/26 191/193/25
f 194/196/26 196/198/27 195/197/27 193/195/26
f 196/198/27 198/200/28 197/199/28 195/197/27
f 198/200/28 200/202/29 199/201/29 197/199/28
f 200/202/29 202/204/30 201/203/30 199/201/29
f 202/204/30 204/206/31 203/205/31 201/203/30
f 204/206/31 206/208/32 205/207/32 203/205/31
f 206/208/32 208/210/33 207/209/33 205/207/32
f 208/210/33 210/212/34 209/211/34 207/209/33
f 210/212/34 212/214/35 211/213/35 209/211/34
f 212/214/35 214/216/36 213/215/36 211/213/35
f 214/216/36 216/218/37 215/217/37 213/215/36
f 216/218/37 218/220/38 217/219/38 215/217/37
f 218/220/38 220/222/39 219/221/39 217/219/38
f 220/222/39 222/224/40 221/223/40 219/221/39
f 222/224/40 224/226/41 223/225/41 221/223/40
f 224/226/41 226/228/42 225/227/42 223/225/41
f 226/228/42 228/230/43 227/229/43 225/227/42
f 228/230/43 230/232/44 229/231/44 227/229/43
f 230/232/44 232/234/45 231/233/45 229/231/44
f 232/234/45 234/236/46 233/235/46 231/233/45
f 234/236/46 236/238/47 235/237/47 233/235/46
f 236/238/47 238/240/48 237/239/48 235/237/47
f 238/240/48 240/242/49 239/241/49 237/239/48
f 240/242/49 242/244/50 241/243/50 239/241/49
f 242/244/50 244/246/51 243/245/51 241/243/50
f 244/246/51 246/248/52 245/247/52 243/245/51
f 246/248/52 248/250/53 247/249/53 245/247/52
f 248/250/53 250/252/54 249/251/54 247/249/53
f 250/252/54 252/254/55 251/253/55 249/251/54
f 252/254/55 254/256/56 253/255/56 251/253/55
f 254/256/56 256/258/57 255/257/57 253/255/56
f 256/258/57 258/260/58 257/259/58 255/257/57
f 258/260/58 260/262/59 259/261/59 257/259/58
f 260/262/59 262/264/60 261/263/60 259/261/59
f 262/264/60 264/266/61 263/265/61 261/263/60
f 264/266/61 266/268/62 265/267/62 263/265/61
f 266/268/62 268/270/63 267/269/63 265/267/62
f 268/270/63 270/272/64 269/271/64 267/269/63
f 270/272/64 272/274/65 271/273/65 269/271/64
f 272/274/65 274/276/66 273/275/66 271/273/65
f 274/276/66 276/278/67 275/277/67 273/275/66
f 276/278/67 278/280/68 277/279/68 275/277/67
f 278/280/68 280/282/69 279/281/69 277/279/68
f 280/282/69 282/284/70 281/283/70 279/281/69
f 282/284/70 284/286/71 283/285/71 281/283/70
f 284/286/71 286/288/72 285/287/72 283/285/71
f 286/288/72 288/290/73 287/289/73 285/287/72
f 288/290/73 290/292/74 289/291/74 287/289/73
f 290/292/74 292/294/75 291/293/75 289/291/74
f 292/294/75 148/150/3 147/148/3 291/293/75
