# Blender 3.5.0
# www.blender.org
mtllib 9.mtl
o Text
v 0.122757 0.249827 0.050557
v 0.124911 0.202442 0.050260
v 0.122613 0.155488 0.049965
v 0.113854 0.107960 0.049667
v 0.096048 0.063734 0.049389
v 0.066755 0.027118 0.049159
v 0.023103 0.002277 0.049004
v -0.037637 -0.006913 0.048946
v -0.062191 -0.005190 0.048957
v -0.084448 -0.000882 0.048984
v -0.101536 0.004575 0.049018
v -0.111731 0.010462 0.049055
v -0.116326 0.019221 0.049110
v -0.117762 0.035303 0.049211
v -0.117331 0.050524 0.049306
v -0.115608 0.059426 0.049362
v -0.112449 0.063590 0.049388
v -0.107998 0.064595 0.049395
v -0.098233 0.062585 0.049382
v -0.082869 0.057990 0.049353
v -0.062335 0.053395 0.049324
v -0.036775 0.051385 0.049312
v 0.004005 0.060001 0.049366
v 0.031001 0.083262 0.049512
v 0.046222 0.117150 0.049724
v 0.051678 0.157642 0.049979
v 0.019800 0.143139 0.049888
v -0.022990 0.136965 0.049849
v -0.073248 0.144719 0.049897
v -0.106849 0.167119 0.050038
v -0.125660 0.202729 0.050262
v -0.131547 0.250114 0.050559
v -0.123218 0.301376 0.050881
v -0.098520 0.341869 0.051135
v -0.057740 0.368433 0.051301
v -0.001164 0.377910 0.051361
v 0.044068 0.371879 0.051323
v 0.077381 0.354648 0.051215
v 0.100643 0.327510 0.051045
v 0.115290 0.292043 0.050822
v 0.023677 0.199427 0.050241
v 0.049955 0.212781 0.050325
v 0.046509 0.264186 0.050647
v 0.036170 0.297212 0.050854
v 0.018939 0.314730 0.050964
v -0.005185 0.319899 0.050997
v -0.028447 0.315161 0.050967
v -0.044673 0.301807 0.050883
v -0.054294 0.281417 0.050755
v -0.057453 0.255571 0.050593
v -0.054724 0.228719 0.050425
v -0.046109 0.209478 0.050304
v -0.030744 0.198135 0.050233
v -0.007769 0.194401 0.050209
v 0.122757 0.250442 -0.047418
v 0.124911 0.203057 -0.047715
v 0.122613 0.156103 -0.048010
v 0.113854 0.108575 -0.048308
v 0.096048 0.064349 -0.048585
v 0.066755 0.027733 -0.048815
v 0.023103 0.002892 -0.048971
v -0.037637 -0.006298 -0.049029
v -0.062191 -0.004575 -0.049018
v -0.084448 -0.000267 -0.048991
v -0.101536 0.005190 -0.048957
v -0.111731 0.011077 -0.048920
v -0.116326 0.019836 -0.048865
v -0.117762 0.035918 -0.048764
v -0.117331 0.051138 -0.048668
v -0.115608 0.060041 -0.048612
v -0.112449 0.064205 -0.048586
v -0.107998 0.065210 -0.048580
v -0.098233 0.063200 -0.048593
v -0.082869 0.058605 -0.048621
v -0.062335 0.054010 -0.048650
v -0.036775 0.052000 -0.048663
v 0.004005 0.060615 -0.048609
v 0.031001 0.083877 -0.048463
v 0.046222 0.117764 -0.048250
v 0.051678 0.158257 -0.047996
v 0.019800 0.143754 -0.048087
v -0.022990 0.137580 -0.048126
v -0.073248 0.145334 -0.048077
v -0.106849 0.167734 -0.047937
v -0.125660 0.203344 -0.047713
v -0.131547 0.250729 -0.047416
v -0.123218 0.301991 -0.047094
v -0.098520 0.342483 -0.046840
v -0.057740 0.369048 -0.046673
v -0.001164 0.378525 -0.046614
v 0.044068 0.372494 -0.046652
v 0.077381 0.355263 -0.046760
v 0.100643 0.328124 -0.046930
v 0.115290 0.292658 -0.047153
v 0.023677 0.200042 -0.047734
v 0.049955 0.213396 -0.047650
v 0.046509 0.264801 -0.047327
v 0.036170 0.297827 -0.047120
v 0.018939 0.315345 -0.047010
v -0.005185 0.320514 -0.046978
v -0.028447 0.315776 -0.047007
v -0.044673 0.302422 -0.047091
v -0.054294 0.282032 -0.047219
v -0.057453 0.256186 -0.047381
v -0.054724 0.229334 -0.047550
v -0.046109 0.210093 -0.047671
v -0.030744 0.198749 -0.047742
v -0.007769 0.195016 -0.047765
v 0.122757 0.250442 -0.047418
v 0.122757 0.249827 0.050557
v 0.124911 0.203057 -0.047715
v 0.124911 0.202442 0.050260
v 0.122613 0.156103 -0.048010
v 0.122613 0.155488 0.049965
v 0.113854 0.108575 -0.048308
v 0.113854 0.107960 0.049667
v 0.096048 0.064349 -0.048585
v 0.096048 0.063734 0.049389
v 0.066755 0.027733 -0.048815
v 0.066755 0.027118 0.049159
v 0.023103 0.002892 -0.048971
v 0.023103 0.002277 0.049004
v -0.037637 -0.006298 -0.049029
v -0.037637 -0.006913 0.048946
v -0.062191 -0.004575 -0.049018
v -0.062191 -0.005190 0.048957
v -0.084448 -0.000267 -0.048991
v -0.084448 -0.000882 0.048984
v -0.101536 0.005190 -0.048957
v -0.101536 0.004575 0.049018
v -0.111731 0.011077 -0.048920
v -0.111731 0.010462 0.049055
v -0.116326 0.019836 -0.048865
v -0.116326 0.019221 0.049110
v -0.117762 0.035918 -0.048764
v -0.117762 0.035303 0.049211
v -0.117331 0.051138 -0.048668
v -0.117331 0.050524 0.049306
v -0.115608 0.060041 -0.048612
v -0.115608 0.059426 0.049362
v -0.112449 0.064205 -0.048586
v -0.112449 0.063590 0.049388
v -0.107998 0.065210 -0.048580
v -0.107998 0.064595 0.049395
v -0.098233 0.063200 -0.048593
v -0.098233 0.062585 0.049382
v -0.082869 0.058605 -0.048621
v -0.082869 0.057990 0.049353
v -0.062335 0.054010 -0.048650
v -0.062335 0.053395 0.049324
v -0.036775 0.052000 -0.048663
v -0.036775 0.051385 0.049312
v 0.004005 0.060615 -0.048609
v 0.004005 0.060001 0.049366
v 0.031001 0.083877 -0.048463
v 0.031001 0.083262 0.049512
v 0.046222 0.117764 -0.048250
v 0.046222 0.117150 0.049724
v 0.051678 0.158257 -0.047996
v 0.051678 0.157642 0.049979
v 0.019800 0.143754 -0.048087
v 0.019800 0.143139 0.049888
v -0.022990 0.137580 -0.048126
v -0.022990 0.136965 0.049849
v -0.073248 0.145334 -0.048077
v -0.073248 0.144719 0.049897
v -0.106849 0.167734 -0.047937
v -0.106849 0.167119 0.050038
v -0.125660 0.203344 -0.047713
v -0.125660 0.202729 0.050262
v -0.131547 0.250729 -0.047416
v -0.131547 0.250114 0.050559
v -0.123218 0.301991 -0.047094
v -0.123218 0.301376 0.050881
v -0.098520 0.342483 -0.046840
v -0.098520 0.341869 0.051135
v -0.057740 0.369048 -0.046673
v -0.057740 0.368433 0.051301
v -0.001164 0.378525 -0.046614
v -0.001164 0.377910 0.051361
v 0.044068 0.372494 -0.046652
v 0.044068 0.371879 0.051323
v 0.077381 0.355263 -0.046760
v 0.077381 0.354648 0.051215
v 0.100643 0.328124 -0.046930
v 0.100643 0.327510 0.051045
v 0.115290 0.292658 -0.047153
v 0.115290 0.292043 0.050822
v 0.023677 0.200042 -0.047734
v 0.023677 0.199427 0.050241
v 0.049955 0.213396 -0.047650
v 0.049955 0.212781 0.050325
v 0.046509 0.264801 -0.047327
v 0.046509 0.264186 0.050647
v 0.036170 0.297827 -0.047120
v 0.036170 0.297212 0.050854
v 0.018939 0.315345 -0.047010
v 0.018939 0.314730 0.050964
v -0.005185 0.320514 -0.046978
v -0.005185 0.319899 0.050997
v -0.028447 0.315776 -0.047007
v -0.028447 0.315161 0.050967
v -0.044673 0.302422 -0.047091
v -0.044673 0.301807 0.050883
v -0.054294 0.282032 -0.047219
v -0.054294 0.281417 0.050755
v -0.057453 0.256186 -0.047381
v -0.057453 0.255571 0.050593
v -0.054724 0.229334 -0.047550
v -0.054724 0.228719 0.050425
v -0.046109 0.210093 -0.047671
v -0.046109 0.209478 0.050304
v -0.030744 0.198749 -0.047742
v -0.030744 0.198135 0.050233
v -0.007769 0.195016 -0.047765
v -0.007769 0.194401 0.050209
vn -0.0000 -0.0063 1.0000
vn -0.0000 0.0063 -1.0000
vn 0.9939 0.1100 0.0007
vn 1.0000 -0.0017 -0.0000
vn 0.9933 -0.1153 -0.0007
vn 0.9604 -0.2787 -0.0017
vn 0.8634 -0.5044 -0.0032
vn 0.6493 -0.7605 -0.0048
vn 0.3276 -0.9448 -0.0059
vn 0.0400 -0.9992 -0.0063
vn -0.1303 -0.9915 -0.0062
vn -0.2475 -0.9689 -0.0061
vn -0.4045 -0.9145 -0.0057
vn -0.7213 -0.6926 -0.0043
vn -0.9594 -0.2822 -0.0018
vn -0.9995 -0.0304 -0.0002
vn -0.9940 0.1095 0.0007
vn -0.9131 0.4078 0.0026
vn -0.5413 0.8408 0.0053
vn -0.0095 0.9999 0.0063
vn 0.2443 0.9697 0.0061
vn 0.2526 0.9675 0.0061
vn 0.1488 0.9889 0.0062
vn -0.0648 0.9979 0.0063
vn -0.4437 0.8962 0.0056
vn -0.8016 0.5979 0.0038
vn -0.9616 0.2745 0.0017
vn -0.5963 -0.8027 -0.0050
vn 0.2813 -0.9596 -0.0060
vn -0.0049 -1.0000 -0.0063
vn -0.3621 -0.9321 -0.0058
vn -0.7422 -0.6701 -0.0042
vn -0.9539 -0.3001 -0.0019
vn -0.9998 0.0187 0.0001
vn -0.9379 0.3470 0.0022
vn -0.7175 0.6965 0.0044
vn -0.3632 0.9317 0.0058
vn -0.0167 0.9998 0.0063
vn 0.3002 0.9538 0.0060
vn 0.6208 0.7840 0.0049
vn 0.8525 0.5228 0.0033
vn 0.9601 0.2796 0.0018
vn -0.3092 0.9510 0.0060
vn -0.8694 0.4941 0.0031
vn -0.9829 -0.1841 -0.0012
vn -0.8576 -0.5143 -0.0032
vn -0.4815 -0.8764 -0.0055
vn -0.0051 -1.0000 -0.0063
vn 0.4303 -0.9027 -0.0057
vn 0.7891 -0.6143 -0.0039
vn 0.9607 -0.2775 -0.0017
vn 0.9999 -0.0102 -0.0001
vn 0.9661 0.2582 0.0016
vn 0.7789 0.6271 0.0039
vn 0.3881 0.9216 0.0058
vn 0.0013 1.0000 0.0063
vt 0.000000 0.000000
vt 0.018868 0.000000
vt 0.037736 0.000000
vt 0.056604 0.000000
vt 0.075472 0.000000
vt 0.094340 0.000000
vt 0.113208 0.000000
vt 0.132075 0.000000
vt 0.150943 0.000000
vt 0.169811 0.000000
vt 0.188679 0.000000
vt 0.207547 0.000000
vt 0.226415 0.000000
vt 0.245283 0.000000
vt 0.264151 0.000000
vt 0.283019 0.000000
vt 0.301887 0.000000
vt 0.320755 0.000000
vt 0.339623 0.000000
vt 0.358491 0.000000
vt 0.377358 0.000000
vt 0.396226 0.000000
vt 0.415094 0.000000
vt 0.433962 0.000000
vt 0.452830 0.000000
vt 0.471698 0.000000
vt 0.490566 0.000000
vt 0.509434 0.000000
vt 0.528302 0.000000
vt 0.547170 0.000000
vt 0.566038 0.000000
vt 0.584906 0.000000
vt 0.603774 0.000000
vt 0.622642 0.000000
vt 0.641509 0.000000
vt 0.660377 0.000000
vt 0.679245 0.000000
vt 0.698113 0.000000
vt 0.716981 0.000000
vt 0.735849 0.000000
vt 0.754717 0.000000
vt 0.773585 0.000000
vt 0.792453 0.000000
vt 0.811321 0.000000
vt 0.830189 0.000000
vt 0.849057 0.000000
vt 0.867925 0.000000
vt 0.886792 0.000000
vt 0.905660 0.000000
vt 0.924528 0.000000
vt 0.943396 0.000000
vt 0.962264 0.000000
vt 0.981132 0.000000
vt 1.000000 0.000000
vt 0.000000 0.000000
vt 0.018868 0.000000
vt 0.037736 0.000000
vt 0.056604 0.000000
vt 0.075472 0.000000
vt 0.094340 0.000000
vt 0.113208 0.000000
vt 0.132075 0.000000
vt 0.150943 0.000000
vt 0.169811 0.000000
vt 0.188679 0.000000
vt 0.207547 0.000000
vt 0.226415 0.000000
vt 0.245283 0.000000
vt 0.264151 0.000000
vt 0.283019 0.000000
vt 0.301887 0.000000
vt 0.320755 0.000000
vt 0.339623 0.000000
vt 0.358491 0.000000
vt 0.377358 0.000000
vt 0.396226 0.000000
vt 0.415094 0.000000
vt 0.433962 0.000000
vt 0.452830 0.000000
vt 0.471698 0.000000
vt 0.490566 0.000000
vt 0.509434 0.000000
vt 0.528302 0.000000
vt 0.547170 0.000000
vt 0.566038 0.000000
vt 0.584906 0.000000
vt 0.603774 0.000000
vt 0.622642 0.000000
vt 0.641509 0.000000
vt 0.660377 0.000000
vt 0.679245 0.000000
vt 0.698113 0.000000
vt 0.716981 0.000000
vt 0.735849 0.000000
vt 0.754717 0.000000
vt 0.773585 0.000000
vt 0.792453 0.000000
vt 0.811321 0.000000
vt 0.830189 0.000000
vt 0.849057 0.000000
vt 0.867925 0.000000
vt 0.886792 0.000000
vt 0.905660 0.000000
vt 0.924528 0.000000
vt 0.943396 0.000000
vt 0.962264 0.000000
vt 0.981132 0.000000
vt 1.000000 0.000000
vt 0.000000 0.000000
vt 1.000000 0.000000
vt 0.000000 1.000000
vt 1.000000 1.000000
vt 0.025000 0.000000
vt 0.025000 1.000000
vt 0.050000 0.000000
vt 0.050000 1.000000
vt 0.075000 0.000000
vt 0.075000 1.000000
vt 0.100000 0.000000
vt 0.100000 1.000000
vt 0.125000 0.000000
vt 0.125000 1.000000
vt 0.150000 0.000000
vt 0.150000 1.000000
vt 0.175000 0.000000
vt 0.175000 1.000000
vt 0.200000 0.000000
vt 0.200000 1.000000
vt 0.225000 0.000000
vt 0.225000 1.000000
vt 0.250000 0.000000
vt 0.250000 1.000000
vt 0.275000 0.000000
vt 0.275000 1.000000
vt 0.300000 0.000000
vt 0.300000 1.000000
vt 0.325000 0.000000
vt 0.325000 1.000000
vt 0.350000 0.000000
vt 0.350000 1.000000
vt 0.375000 0.000000
vt 0.375000 1.000000
vt 0.400000 0.000000
vt 0.400000 1.000000
vt 0.425000 0.000000
vt 0.425000 1.000000
vt 0.450000 0.000000
vt 0.450000 1.000000
vt 0.475000 0.000000
vt 0.475000 1.000000
vt 0.500000 0.000000
vt 0.500000 1.000000
vt 0.525000 0.000000
vt 0.525000 1.000000
vt 0.550000 0.000000
vt 0.550000 1.000000
vt 0.575000 0.000000
vt 0.575000 1.000000
vt 0.600000 0.000000
vt 0.600000 1.000000
vt 0.625000 0.000000
vt 0.625000 1.000000
vt 0.650000 0.000000
vt 0.650000 1.000000
vt 0.675000 0.000000
vt 0.675000 1.000000
vt 0.700000 0.000000
vt 0.700000 1.000000
vt 0.725000 0.000000
vt 0.725000 1.000000
vt 0.750000 0.000000
vt 0.750000 1.000000
vt 0.775000 0.000000
vt 0.775000 1.000000
vt 0.800000 0.000000
vt 0.800000 1.000000
vt 0.825000 0.000000
vt 0.825000 1.000000
vt 0.850000 0.000000
vt 0.850000 1.000000
vt 0.875000 0.000000
vt 0.875000 1.000000
vt 0.900000 0.000000
vt 0.900000 1.000000
vt 0.925000 0.000000
vt 0.925000 1.000000
vt 0.950000 0.000000
vt 0.950000 1.000000
vt 0.975000 0.000000
vt 0.975000 1.000000
vt 0.000000 0.000000
vt 1.000000 0.000000
vt 0.000000 1.000000
vt 1.000000 1.000000
vt 0.071429 0.000000
vt 0.071429 1.000000
vt 0.142857 0.000000
vt 0.142857 1.000000
vt 0.214286 0.000000
vt 0.214286 1.000000
vt 0.285714 0.000000
vt 0.285714 1.000000
vt 0.357143 0.000000
vt 0.357143 1.000000
vt 0.428571 0.000000
vt 0.428571 1.000000
vt 0.500000 0.000000
vt 0.500000 1.000000
vt 0.571429 0.000000
vt 0.571429 1.000000
vt 0.642857 0.000000
vt 0.642857 1.000000
vt 0.714286 0.000000
vt 0.714286 1.000000
vt 0.785714 0.000000
vt 0.785714 1.000000
vt 0.857143 0.000000
vt 0.857143 1.000000
vt 0.928571 0.000000
vt 0.928571 1.000000
s 0
f 35/35/1 37/37/1 36/36/1
f 35/35/1 38/38/1 37/37/1
f 34/34/1 38/38/1 35/35/1
f 34/34/1 39/39/1 38/38/1
f 33/33/1 46/46/1 34/34/1
f 46/46/1 39/39/1 34/34/1
f 46/46/1 45/45/1 39/39/1
f 45/45/1 40/40/1 39/39/1
f 33/33/1 47/47/1 46/46/1
f 33/33/1 48/48/1 47/47/1
f 44/44/1 40/40/1 45/45/1
f 33/33/1 49/49/1 48/48/1
f 32/32/1 49/49/1 33/33/1
f 43/43/1 40/40/1 44/44/1
f 43/43/1 1/1/1 40/40/1
f 32/32/1 50/50/1 49/49/1
f 42/42/1 1/1/1 43/43/1
f 32/32/1 51/51/1 50/50/1
f 31/31/1 51/51/1 32/32/1
f 42/42/1 2/2/1 1/1/1
f 31/31/1 52/52/1 51/51/1
f 41/41/1 2/2/1 42/42/1
f 31/31/1 53/53/1 52/52/1
f 30/30/1 53/53/1 31/31/1
f 41/41/1 3/3/1 2/2/1
f 54/54/1 3/3/1 41/41/1
f 30/30/1 54/54/1 53/53/1
f 30/30/1 3/3/1 54/54/1
f 29/29/1 26/26/1 30/30/1
f 26/26/1 3/3/1 30/30/1
f 29/29/1 27/27/1 26/26/1
f 25/25/1 3/3/1 26/26/1
f 25/25/1 4/4/1 3/3/1
f 28/28/1 27/27/1 29/29/1
f 24/24/1 4/4/1 25/25/1
f 24/24/1 5/5/1 4/4/1
f 23/23/1 5/5/1 24/24/1
f 17/17/1 19/19/1 18/18/1
f 23/23/1 6/6/1 5/5/1
f 16/16/1 19/19/1 17/17/1
f 16/16/1 20/20/1 19/19/1
f 22/22/1 6/6/1 23/23/1
f 15/15/1 20/20/1 16/16/1
f 15/15/1 21/21/1 20/20/1
f 15/15/1 22/22/1 21/21/1
f 15/15/1 6/6/1 22/22/1
f 14/14/1 6/6/1 15/15/1
f 13/13/1 6/6/1 14/14/1
f 13/13/1 7/7/1 6/6/1
f 12/12/1 7/7/1 13/13/1
f 11/11/1 7/7/1 12/12/1
f 10/10/1 7/7/1 11/11/1
f 10/10/1 8/8/1 7/7/1
f 9/9/1 8/8/1 10/10/1
f 89/89/2 90/90/2 91/91/2
f 89/89/2 91/91/2 92/92/2
f 88/88/2 89/89/2 92/92/2
f 88/88/2 92/92/2 93/93/2
f 87/87/2 88/88/2 100/100/2
f 100/100/2 88/88/2 93/93/2
f 100/100/2 93/93/2 99/99/2
f 99/99/2 93/93/2 94/94/2
f 87/87/2 100/100/2 101/101/2
f 87/87/2 101/101/2 102/102/2
f 98/98/2 99/99/2 94/94/2
f 87/87/2 102/102/2 103/103/2
f 86/86/2 87/87/2 103/103/2
f 97/97/2 98/98/2 94/94/2
f 97/97/2 94/94/2 55/55/2
f 86/86/2 103/103/2 104/104/2
f 96/96/2 97/97/2 55/55/2
f 86/86/2 104/104/2 105/105/2
f 85/85/2 86/86/2 105/105/2
f 96/96/2 55/55/2 56/56/2
f 85/85/2 105/105/2 106/106/2
f 95/95/2 96/96/2 56/56/2
f 85/85/2 106/106/2 107/107/2
f 84/84/2 85/85/2 107/107/2
f 95/95/2 56/56/2 57/57/2
f 108/108/2 95/95/2 57/57/2
f 84/84/2 107/107/2 108/108/2
f 84/84/2 108/108/2 57/57/2
f 83/83/2 84/84/2 80/80/2
f 80/80/2 84/84/2 57/57/2
f 83/83/2 80/80/2 81/81/2
f 79/79/2 80/80/2 57/57/2
f 79/79/2 57/57/2 58/58/2
f 82/82/2 83/83/2 81/81/2
f 78/78/2 79/79/2 58/58/2
f 78/78/2 58/58/2 59/59/2
f 77/77/2 78/78/2 59/59/2
f 71/71/2 72/72/2 73/73/2
f 77/77/2 59/59/2 60/60/2
f 70/70/2 71/71/2 73/73/2
f 70/70/2 73/73/2 74/74/2
f 76/76/2 77/77/2 60/60/2
f 69/69/2 70/70/2 74/74/2
f 69/69/2 74/74/2 75/75/2
f 69/69/2 75/75/2 76/76/2
f 69/69/2 76/76/2 60/60/2
f 68/68/2 69/69/2 60/60/2
f 67/67/2 68/68/2 60/60/2
f 67/67/2 60/60/2 61/61/2
f 66/66/2 67/67/2 61/61/2
f 65/65/2 66/66/2 61/61/2
f 64/64/2 65/65/2 61/61/2
f 64/64/2 61/61/2 62/62/2
f 63/63/2 64/64/2 62/62/2
s 1
f 110/111/3 112/114/4 111/113/4 109/109/3
f 112/114/4 114/116/5 113/115/5 111/113/4
f 114/116/5 116/118/6 115/117/6 113/115/5
f 116/118/6 118/120/7 117/119/7 115/117/6
f 118/120/7 120/122/8 119/121/8 117/119/7
f 120/122/8 122/124/9 121/123/9 119/121/8
f 122/124/9 124/126/10 123/125/10 121/123/9
f 124/126/10 126/128/11 125/127/11 123/125/10
f 126/128/11 128/130/12 127/129/12 125/127/11
f 128/130/12 130/132/13 129/131/13 127/129/12
f 130/132/13 132/134/14 131/133/14 129/131/13
f 132/134/14 134/136/15 133/135/15 131/133/14
f 134/136/15 136/138/16 135/137/16 133/135/15
f 136/138/16 138/140/17 137/139/17 135/137/16
f 138/140/17 140/142/18 139/141/18 137/139/17
f 140/142/18 142/144/19 141/143/19 139/141/18
f 142/144/19 144/146/20 143/145/20 141/143/19
f 144/146/20 146/148/21 145/147/21 143/145/20
f 146/148/21 148/150/22 147/149/22 145/147/21
f 148/150/22 150/152/23 149/151/23 147/149/22
f 150/152/23 152/154/24 151/153/24 149/151/23
f 152/154/24 154/156/25 153/155/25 151/153/24
f 154/156/25 156/158/26 155/157/26 153/155/25
f 156/158/26 158/160/27 157/159/27 155/157/26
f 158/160/27 160/162/28 159/161/28 157/159/27
f 160/162/28 162/164/29 161/163/29 159/161/28
f 162/164/29 164/166/30 163/165/30 161/163/29
f 164/166/30 166/168/31 165/167/31 163/165/30
f 166/168/31 168/170/32 167/169/32 165/167/31
f 168/170/32 170/172/33 169/171/33 167/169/32
f 170/172/33 172/174/34 171/173/34 169/171/33
f 172/174/34 174/176/35 173/175/35 171/173/34
f 174/176/35 176/178/36 175/177/36 173/175/35
f 176/178/36 178/180/37 177/179/37 175/177/36
f 178/180/37 180/182/38 179/181/38 177/179/37
f 180/182/38 182/184/39 181/183/39 179/181/38
f 182/184/39 184/186/40 183/185/40 181/183/39
f 184/186/40 186/188/41 185/187/41 183/185/40
f 186/188/41 188/190/42 187/189/42 185/187/41
f 188/190/42 110/112/3 109/110/3 187/189/42
f 190/193/43 192/196/44 191/195/44 189/191/43
f 192/196/44 194/198/45 193/197/45 191/195/44
f 194/198/45 196/200/46 195/199/46 193/197/45
f 196/200/46 198/202/47 197/201/47 195/199/46
f 198/202/47 200/204/48 199/203/48 197/201/47
f 200/204/48 202/206/49 201/205/49 199/203/48
f 202/206/49 204/208/50 203/207/50 201/205/49
f 204/208/50 206/210/51 205/209/51 203/207/50
f 206/210/51 208/212/52 207/211/52 205/209/51
f 208/212/52 210/214/53 209/213/53 207/211/52
f 210/214/53 212/216/54 211/215/54 209/213/53
f 212/216/54 214/218/55 213/217/55 211/215/54
f 214/218/55 216/220/56 215/219/56 213/217/55
f 216/220/56 190/194/43 189/192/43 215/219/56
